<?xml version="1.0" encoding="UTF-8"?>
<svg xmlns="http://www.w3.org/2000/svg" xmlns:xlink="http://www.w3.org/1999/xlink" width="30pt" height="30pt" viewBox="0 0 30 30" version="1.1">
<g id="surface1">
<path style=" stroke:none;fill-rule:nonzero;fill:rgb(62.745098%,92.156863%,100%);fill-opacity:1;" d="M 7.855469 11.390625 L 0.886719 11.390625 C 0.527344 11.390625 0.207031 11.175781 0.0703125 10.847656 C -0.0703125 10.515625 0.00390625 10.136719 0.253906 9.882812 L 7.3125 2.726562 C 7.480469 2.558594 7.707031 2.464844 7.941406 2.464844 L 11.425781 2.464844 C 11.734375 2.464844 12.019531 2.625 12.179688 2.882812 C 12.34375 3.144531 12.355469 3.472656 12.21875 3.746094 L 8.648438 10.902344 C 8.496094 11.203125 8.191406 11.390625 7.855469 11.390625 Z M 7.855469 11.390625 "/>
<path style=" stroke:none;fill-rule:nonzero;fill:rgb(45.098039%,78.431373%,94.117647%);fill-opacity:1;" d="M 29.113281 11.390625 L 22.144531 11.390625 C 21.808594 11.390625 21.503906 11.203125 21.351562 10.902344 L 17.78125 3.746094 C 17.644531 3.472656 17.65625 3.144531 17.820312 2.882812 C 17.980469 2.625 18.265625 2.464844 18.574219 2.464844 L 22.058594 2.464844 C 22.292969 2.464844 22.519531 2.558594 22.6875 2.726562 L 29.746094 9.882812 C 29.996094 10.136719 30.070312 10.519531 29.929688 10.847656 C 29.792969 11.175781 29.472656 11.390625 29.113281 11.390625 Z M 29.113281 11.390625 "/>
<path style=" stroke:none;fill-rule:nonzero;fill:rgb(82.352941%,94.117647%,100%);fill-opacity:1;" d="M 6.863281 10.480469 L 11.425781 2.464844 L 18.574219 2.464844 L 23.121094 10.480469 Z M 6.863281 10.480469 "/>
<path style=" stroke:none;fill-rule:nonzero;fill:rgb(0%,45.098039%,66.666667%);fill-opacity:1;" d="M 21.1875 10.480469 L 14.191406 26.292969 C 14.011719 26.691406 14.15625 27.160156 14.523438 27.398438 C 14.671875 27.488281 14.835938 27.535156 15 27.535156 C 15.246094 27.535156 15.492188 27.429688 15.667969 27.234375 L 29.78125 11.089844 C 29.929688 10.917969 30.003906 10.699219 30 10.480469 Z M 21.1875 10.480469 "/>
<path style=" stroke:none;fill-rule:nonzero;fill:rgb(25.490196%,70.588235%,90.196078%);fill-opacity:1;" d="M 8.8125 10.480469 L 0 10.480469 C -0.00390625 10.699219 0.0703125 10.917969 0.21875 11.089844 L 14.332031 27.234375 C 14.507812 27.429688 14.753906 27.535156 15 27.535156 C 15.164062 27.535156 15.328125 27.492188 15.476562 27.398438 C 15.84375 27.160156 15.988281 26.691406 15.808594 26.292969 Z M 8.8125 10.480469 "/>
<path style=" stroke:none;fill-rule:nonzero;fill:rgb(62.745098%,92.156863%,100%);fill-opacity:1;" d="M 6.863281 10.480469 L 14.191406 27.007812 C 14.332031 27.328125 14.648438 27.535156 15 27.535156 C 15.351562 27.535156 15.667969 27.328125 15.808594 27.007812 L 23.121094 10.480469 Z M 6.863281 10.480469 "/>
<path style=" stroke:none;fill-rule:nonzero;fill:rgb(25.490196%,70.588235%,90.196078%);fill-opacity:1;" d="M 14.992188 10.480469 L 23.121094 10.480469 L 18.574219 2.464844 L 14.992188 2.464844 Z M 14.992188 10.480469 "/>
<path style=" stroke:none;fill-rule:nonzero;fill:rgb(45.098039%,78.431373%,94.117647%);fill-opacity:1;" d="M 15 27.535156 C 15.351562 27.535156 15.667969 27.328125 15.808594 27.007812 L 23.121094 10.480469 L 15 10.480469 Z M 15 27.535156 "/>
</g>
</svg>
